<svg width="100" height="100" viewBox="0 0 100 100" fill="none" xmlns="http://www.w3.org/2000/svg">
<g clip-path="url(#clip0_21_4111)">
<path d="M98.1119 45.5441L54.4514 1.88821C51.9368 -0.626638 47.8596 -0.626638 45.345 1.88821L36.2792 10.9547L47.7782 22.4547C50.4557 21.5513 53.5155 22.1535 55.6477 24.2859C57.788 26.4263 58.3902 29.519 57.4625 32.2048L68.5465 43.2897C71.232 42.3619 74.3245 42.9641 76.4648 45.1046C79.4596 48.0997 79.4596 52.9503 76.4648 55.9372C73.47 58.9322 68.6197 58.9322 65.6249 55.9372C63.3707 53.6828 62.8173 50.3785 63.9566 47.6032L53.6213 37.2671V64.4747C54.3538 64.8328 55.0374 65.3211 55.6477 65.9234C58.6425 68.9184 58.6425 73.7691 55.6477 76.7641C52.6529 79.7591 47.8027 79.7591 44.816 76.7641C41.8212 73.7691 41.8212 68.9184 44.816 65.9234C45.5566 65.1827 46.4111 64.6293 47.3225 64.2549V36.795C46.4111 36.4206 45.5566 35.8672 44.816 35.1266C42.5455 32.864 42.0002 29.5353 43.164 26.7519L31.8196 15.4066L1.88794 45.3488C-0.626709 47.8636 -0.626709 51.9411 1.88794 54.456L45.5484 98.12C48.0631 100.635 52.1402 100.635 54.6549 98.12L98.1119 54.6676C100.627 52.1446 100.627 48.0671 98.1119 45.5441Z" fill="#F05133"/>
</g>
<defs>
<clipPath id="clip0_21_4111">
<rect width="100" height="100" fill="white"/>
</clipPath>
</defs>
</svg>
