<svg width="31" height="31" viewBox="0 0 31 31" fill="none" xmlns="http://www.w3.org/2000/svg">
<g clip-path="url(#clip0_53_1058)">
<path d="M15.4995 0.812256C7.21661 0.812256 0.5 7.55403 0.5 15.8727C0.5 22.5255 4.79726 28.1703 10.76 30.1614C11.5095 30.3003 11.7829 29.8353 11.7829 29.4356C11.7829 29.0785 11.7698 28.1316 11.7626 26.8745C7.58919 27.7856 6.70903 24.8558 6.70903 24.8558C6.02774 23.1158 5.04452 22.6537 5.04452 22.6537C3.68194 21.7189 5.1471 21.7368 5.1471 21.7368C6.65194 21.8427 7.44403 23.2895 7.44403 23.2895C8.78339 25.5908 10.956 24.9255 11.8105 24.5398C11.9455 23.5673 12.334 22.9029 12.7623 22.5269C9.43226 22.1461 5.93097 20.8552 5.93097 15.085C5.93097 13.4413 6.515 12.0966 7.47452 11.0427C7.31919 10.6619 6.80484 9.13145 7.62064 7.05855C7.62064 7.05855 8.88064 6.65403 11.7456 8.60209C12.9423 8.26822 14.2255 8.10129 15.5015 8.09451C16.7745 8.10129 18.0587 8.26774 19.2573 8.60209C22.1198 6.65403 23.3779 7.05855 23.3779 7.05855C24.1956 9.13145 23.6813 10.6619 23.5265 11.0427C24.4884 12.0966 25.069 13.4408 25.069 15.085C25.069 20.8697 21.5619 22.1423 18.2203 22.5158C18.7589 22.9808 19.2384 23.8992 19.2384 25.3048C19.2384 27.3187 19.2205 28.9416 19.2205 29.4356C19.2205 29.8392 19.491 30.3081 20.2516 30.1595C26.2066 28.1645 30.5 22.5235 30.5 15.8727C30.5 7.55403 23.7834 0.812256 15.4995 0.812256Z" fill="white"/>
<path d="M15.4995 0.812256C7.21661 0.812256 0.5 7.55403 0.5 15.8727C0.5 22.5255 4.79726 28.1703 10.76 30.1614C11.5095 30.3003 11.7829 29.8353 11.7829 29.4356C11.7829 29.0785 11.7698 28.1316 11.7626 26.8745C7.58919 27.7856 6.70903 24.8558 6.70903 24.8558C6.02774 23.1158 5.04452 22.6537 5.04452 22.6537C3.68194 21.7189 5.1471 21.7368 5.1471 21.7368C6.65194 21.8427 7.44403 23.2895 7.44403 23.2895C8.78339 25.5908 10.956 24.9255 11.8105 24.5398C11.9455 23.5673 12.334 22.9029 12.7623 22.5269C9.43226 22.1461 5.93097 20.8552 5.93097 15.085C5.93097 13.4413 6.515 12.0966 7.47452 11.0427C7.31919 10.6619 6.80484 9.13145 7.62064 7.05855C7.62064 7.05855 8.88064 6.65403 11.7456 8.60209C12.9423 8.26822 14.2255 8.10129 15.5015 8.09451C16.7745 8.10129 18.0587 8.26774 19.2573 8.60209C22.1198 6.65403 23.3779 7.05855 23.3779 7.05855C24.1956 9.13145 23.6813 10.6619 23.5265 11.0427C24.4884 12.0966 25.069 13.4408 25.069 15.085C25.069 20.8697 21.5619 22.1423 18.2203 22.5158C18.7589 22.9808 19.2384 23.8992 19.2384 25.3048C19.2384 27.3187 19.2205 28.9416 19.2205 29.4356C19.2205 29.8392 19.491 30.3081 20.2516 30.1595C26.2066 28.1645 30.5 22.5235 30.5 15.8727C30.5 7.55403 23.7834 0.812256 15.4995 0.812256Z" fill="white"/>
<path d="M23.393 7.10059C24.1871 9.15123 23.6805 10.6648 23.5261 11.0427C24.488 12.0966 25.0687 13.4407 25.0687 15.0849C25.0687 20.8696 21.5616 22.1422 18.22 22.5157C18.7585 22.9807 19.238 23.8991 19.238 25.3048C19.238 27.3187 19.2201 28.9416 19.2201 29.4356C19.2201 29.8391 19.4906 30.308 20.2513 30.1595C26.2067 28.1645 30.5001 22.5235 30.5001 15.8727C30.5001 14.0848 30.1885 12.3709 29.619 10.7799C27.5509 8.60252 25.2492 7.15236 23.393 7.10059Z" fill="white"/>
<path d="M12.172 23.3218C12.3404 22.9821 12.546 22.7179 12.7623 22.5268C10.9372 22.3178 9.06265 21.8305 7.73926 20.4858C8.75732 22.1804 10.4151 22.9512 12.172 23.3218Z" fill="white"/>
<path d="M1.28097 16.8879C1.28097 8.56919 7.99758 1.82742 16.2805 1.82742C20.8797 1.82742 24.9935 3.90758 27.7444 7.17951C25.0274 3.3279 20.5574 0.812256 15.4995 0.812256C7.21661 0.812256 0.5 7.55403 0.5 15.8727C0.5 19.5816 1.8379 22.975 4.05355 25.5981C2.31113 23.1385 1.28097 20.1356 1.28097 16.8879Z" fill="white"/>
<path d="M20.0188 26.3205C20.0188 24.9154 19.5392 23.9955 19.0007 23.5305C22.3423 23.158 25.8499 21.8844 25.8499 16.1002C25.8499 14.456 25.2692 13.1123 24.3063 12.0584C24.4621 11.6776 24.9775 10.1467 24.1578 8.07425C24.1578 8.07425 24.002 8.02634 23.6802 8.04473C24.0315 9.60763 23.6551 10.7254 23.5259 11.0428C24.4878 12.0967 25.0684 13.4409 25.0684 15.0851C25.0684 20.8697 21.5613 22.1423 18.2197 22.5159C18.7583 22.9809 19.2378 23.8992 19.2378 25.3049C19.2378 27.3188 19.2199 28.9417 19.2199 29.4357C19.2199 29.7909 19.4313 30.1959 20.0013 30.1862C20.0052 29.5054 20.0188 28.06 20.0188 26.3205Z" fill="white"/>
<path d="M7.60474 26.1448C7.91974 26.7932 8.97845 28.3464 11.7713 28.0193C11.7675 27.6777 11.7646 27.2949 11.7626 26.8744C9.60796 27.3448 8.33587 26.7903 7.60474 26.1448Z" fill="white"/>
<path d="M8.14328 24.1727C8.04699 24.0275 7.86651 23.7812 7.60474 23.5349C7.77457 23.787 7.95506 23.9985 8.14328 24.1727Z" fill="white"/>
</g>
<defs>
<clipPath id="clip0_53_1058">
<rect width="30" height="30" fill="white" transform="translate(0.5 0.5)"/>
</clipPath>
</defs>
</svg>
