<svg width="147" height="100" viewBox="0 0 147 100" fill="none" xmlns="http://www.w3.org/2000/svg">
<g clip-path="url(#clip0_21_4102)">
<path d="M35.3384 91.1079H29.668C29.4766 81.5465 28.9263 72.527 28.0171 64.0492L19.332 91.1079H15.0134L6.42407 64.0492C5.79403 72.1684 5.39526 81.188 5.22778 91.1079H0C0.334961 79.0367 1.17236 67.7184 2.51221 57.1531H9.57031L17.7529 82.0963L25.9834 57.1531H32.7066C34.174 69.5191 35.0433 80.8374 35.3145 91.1079H35.3384Z" fill="#00758F"/>
<path d="M59.946 66.0571C57.6412 78.5905 54.5946 87.7136 50.8064 93.4266C47.8635 97.8168 44.6335 100.008 41.1165 100C39.9214 99.9426 38.7481 99.6587 37.6592 99.1634V96.1396C38.4523 96.2442 39.2518 96.2922 40.0518 96.283C41.4973 96.3503 42.914 95.8629 44.0115 94.9205C44.5635 94.4682 45.0109 93.9016 45.3227 93.26C45.6345 92.6183 45.8035 91.9167 45.8179 91.2035C45.5852 89.2262 45.1153 87.2841 44.4182 85.4189L38.1975 66.0571H43.7603L48.2344 80.5426C49.2393 83.8333 49.658 86.128 49.4905 87.4268C52.0206 80.526 53.7389 73.3546 54.6106 66.0571H59.946Z" fill="#00758F"/>
<path d="M84.793 81.69C84.8282 83.0335 84.5629 84.3679 84.0166 85.5961C83.4702 86.8242 82.6565 87.9151 81.6348 88.7893C79.2452 90.7234 76.2244 91.7066 73.1531 91.5501C69.6977 91.5168 66.3345 90.4329 63.511 88.4427L64.9705 85.5265C67.2066 86.7494 69.6965 87.4368 72.2439 87.5344C73.945 87.6295 75.6292 87.1542 77.0291 86.1838C77.6106 85.7423 78.0803 85.1706 78.4003 84.5146C78.7203 83.8586 78.8816 83.1367 78.8713 82.4071C78.8713 80.3992 77.4717 78.6782 74.8877 77.232C72.4951 75.9173 67.71 73.1923 67.71 73.1923C66.4883 72.4447 65.4863 71.3875 64.8056 70.1281C64.1249 68.8688 63.7897 67.4519 63.834 66.0213C63.7911 64.7647 64.0286 63.5144 64.5293 62.3609C65.0301 61.2074 65.7814 60.1796 66.729 59.3522C68.8058 57.5999 71.466 56.6913 74.1819 56.8065C77.2278 56.7809 80.2128 57.6585 82.7593 59.3283L81.5271 62.1489C79.4732 61.2385 77.2542 60.7586 75.0073 60.7386C73.5654 60.6247 72.1327 61.0507 70.9878 61.9338C70.5153 62.3293 70.1347 62.8228 69.8723 63.3801C69.61 63.9373 69.4722 64.545 69.4685 65.1608C69.4685 67.1686 70.9041 68.9136 73.5479 70.3837C75.9404 71.6864 80.8213 74.4711 80.8213 74.4711C83.477 76.3476 84.793 78.3554 84.793 81.6422V81.69Z" fill="#F29111"/>
<path fill-rule="evenodd" clip-rule="evenodd" d="M94.9255 84.3074C93.5618 82.0963 92.8679 78.5467 92.8679 73.6584C92.8679 65.101 95.4639 60.8263 100.656 60.8342C101.837 60.7536 103.018 60.9958 104.071 61.5348C105.125 62.0739 106.012 62.8894 106.637 63.8939C108.017 66.101 108.703 69.6227 108.695 74.4592C108.695 83.0804 106.103 87.387 100.919 87.379C99.7382 87.457 98.5584 87.2136 97.5051 86.6748C96.4518 86.1361 95.5644 85.322 94.9375 84.3194L94.9255 84.3074ZM115.107 91.9206L108.862 88.849C109.427 88.3927 109.948 87.8846 110.417 87.3312C113.065 84.2158 114.389 79.6064 114.389 73.503C114.389 62.2684 110.003 56.6511 101.23 56.6511C99.3262 56.549 97.4243 56.8837 95.6701 57.6295C93.9158 58.3753 92.3557 59.5124 91.1094 60.9537C88.4696 64.0771 87.1497 68.6706 87.1497 74.7341C87.1497 80.7976 88.322 85.1799 90.6668 87.881C92.7961 90.3908 96.0261 91.6577 100.345 91.6577C101.845 91.6708 103.34 91.4696 104.783 91.0601L112.894 95.781L115.107 91.9684V91.9206Z" fill="#F29111"/>
<path d="M135.444 91.1079H119.33V57.1531H124.749V86.9248H135.444V91.1079Z" fill="#F29111"/>
<path d="M139.308 91.096H140.205V87.6419H141.401V86.9368H138.1V87.6419H139.296V91.096H139.308ZM146.151 91.096H147V86.9368H145.72L144.679 89.7813L143.555 86.9368H142.358V91.096H143.16V87.9407L144.356 91.096H144.966L146.163 87.9407V91.096H146.151Z" fill="#F29111"/>
<path fill-rule="evenodd" clip-rule="evenodd" d="M142.251 45.787C139.548 45.6145 136.839 46.022 134.307 46.9822C133.697 47.2332 132.716 47.2332 132.633 48.0101C132.956 48.3328 132.991 48.8706 133.291 49.3247C133.845 50.2746 134.561 51.1201 135.408 51.8227C136.269 52.48 137.131 53.1373 138.04 53.711C139.631 54.6911 141.437 55.2648 142.981 56.2567C143.89 56.8304 144.787 57.5595 145.696 58.181C146.139 58.5037 146.426 59.0415 147 59.2447V59.1252C146.713 58.7547 146.629 58.2168 146.342 57.8105L145.146 56.6153C143.944 55.0258 142.508 53.6275 140.887 52.4681C139.571 51.5597 136.7 50.3287 136.174 48.8825L136.09 48.7989C137.049 48.6608 137.994 48.4368 138.913 48.1296C140.313 47.771 141.581 47.8547 143.004 47.4842C143.662 47.3169 144.32 47.1137 144.978 46.9105V46.54C144.237 45.799 143.71 44.819 142.933 44.1497C140.81 42.3014 138.55 40.6154 136.174 39.106C134.906 38.2933 133.267 37.7555 131.915 37.0623C131.424 36.8113 130.611 36.6918 130.324 36.2735C129.649 35.2856 129.084 34.2277 128.637 33.1182C127.441 30.8713 126.244 28.3375 125.287 25.9472C124.691 24.3189 124 22.7266 123.218 21.1785C119.411 14.7162 113.915 9.41119 107.319 5.83246C105.662 5.0268 103.897 4.4633 102.079 4.15921C101.063 4.15921 100.034 4.02775 99.0169 3.99189C98.3522 3.56114 97.7205 3.08176 97.1268 2.55768C94.7342 1.07567 88.7527 -2.11544 87.054 2.10352C85.9534 4.7807 88.6929 7.39813 89.638 8.74867C90.4277 9.70428 91.1247 10.7328 91.7195 11.8203C92.0066 12.5254 92.0904 13.2664 92.3775 13.9955C92.9781 15.8684 93.6891 17.7042 94.5069 19.4933C94.9501 20.3779 95.4579 21.2288 96.0262 22.039C96.3492 22.4931 96.9234 22.6963 97.043 23.4373C96.5938 24.4141 96.2798 25.4475 96.1099 26.5089C94.6265 31.1462 95.2007 36.883 97.3062 40.2892C97.9522 41.3171 99.5193 43.576 101.601 42.6796C103.443 41.9505 103.036 39.608 103.575 37.5643C103.694 37.0623 103.575 36.7396 103.85 36.3691V36.4408C104.424 37.636 105.046 38.6997 105.537 39.847C106.989 41.9826 108.783 43.8643 110.848 45.4165C111.829 46.1575 112.607 47.4244 113.839 47.8786V47.8069H113.755C113.478 47.4917 113.16 47.2145 112.81 46.9822C112.033 46.2223 111.321 45.3987 110.681 44.5202C108.945 42.1643 107.412 39.6654 106.099 37.0503C105.441 35.7715 104.903 34.3732 104.34 33.1063C104.089 32.6162 104.089 31.9111 103.682 31.6362C102.91 32.4702 102.239 33.393 101.685 34.3851C101 36.3831 100.597 38.4669 100.488 40.5761C100.321 40.5761 100.405 40.5761 100.321 40.6598C99.0169 40.3251 98.5623 38.9746 98.0718 37.8272C96.7959 34.3083 96.6661 30.4765 97.701 26.8794C97.9881 26.0189 99.2203 23.2939 98.7178 22.4931C98.4786 21.7043 97.6531 21.298 97.2105 20.6406C96.6351 19.8186 96.1422 18.9419 95.7391 18.0232C94.7581 15.7165 94.2557 13.1828 93.2029 10.8522C92.6046 9.74599 91.9164 8.6907 91.1453 7.69692C90.2936 6.7088 89.5403 5.64004 88.8963 4.50581C88.6929 4.05165 88.4058 3.31064 88.7288 2.82062C88.7537 2.68112 88.8231 2.55338 88.9265 2.45647C89.03 2.35955 89.1621 2.29863 89.303 2.28279C89.8414 1.82863 91.3487 2.40231 91.887 2.6533C93.3432 3.20288 94.7319 3.91663 96.0262 4.7807C96.6004 5.18706 97.2225 5.97588 97.9402 6.1671H98.8015C100.117 6.45394 101.589 6.25076 102.821 6.62127C104.899 7.3123 106.881 8.26409 108.719 9.45382C114.143 12.9185 118.548 17.7608 121.483 23.4851C121.986 24.4174 122.189 25.2898 122.679 26.2699C123.541 28.2778 124.606 30.3335 125.467 32.2457C126.223 34.1829 127.198 36.0275 128.374 37.7435C128.996 38.6041 131.448 39.0582 132.549 39.5124C133.515 39.8597 134.461 40.2587 135.384 40.7076C136.772 41.5681 138.159 42.5481 139.475 43.4923C140.121 43.9943 142.179 45.0102 142.299 45.8827L142.251 45.787Z" fill="#00758F"/>
<path fill-rule="evenodd" clip-rule="evenodd" d="M100.488 10.1351C99.9188 10.1293 99.3513 10.2017 98.8015 10.3502V10.4339H98.8853C99.2837 11.022 99.7235 11.5812 100.201 12.1071C100.524 12.7645 100.811 13.4218 101.134 14.0792L101.218 13.9955C101.522 13.7546 101.76 13.441 101.911 13.0838C102.061 12.7266 102.119 12.3373 102.079 11.9517C101.84 11.6649 101.792 11.3781 101.589 11.0912C101.386 10.8044 100.811 10.4817 100.488 10.147V10.1351Z" fill="#00758F"/>
</g>
<defs>
<clipPath id="clip0_21_4102">
<rect width="147" height="100" fill="white"/>
</clipPath>
</defs>
</svg>
