<svg width="30" height="30" viewBox="0 0 30 30" fill="none" xmlns="http://www.w3.org/2000/svg">
<path d="M0.57803 22.5003C1.84538 22.3456 3.13052 22.5123 4.39787 22.304C5.03446 22.2029 5.61758 21.9887 6.19472 21.7626C4.76679 20.8464 3.48153 19.7992 2.2857 18.5438C1.85732 18.0975 2.16666 17.3478 2.79145 17.3301C3.30317 17.3538 3.80294 17.3123 4.29077 17.211C3.04718 15.6343 2.08333 13.9386 1.33366 12.0346C1.13142 11.5229 1.72634 11.0054 2.20833 11.16C2.48795 11.273 2.77353 11.3504 3.06509 11.4099C2.17861 9.27978 1.99415 7.13192 2.48795 4.77571C2.60101 4.23426 3.31498 4.10341 3.67793 4.46039C6.52198 7.25667 10.1157 8.60139 13.9593 9.24395C13.6201 6.6141 15.4885 3.8177 17.9397 2.90136C19.9746 2.14572 22.7056 2.66341 24.0741 4.37692C24.9904 3.79978 26.2576 3.60935 27.2751 3.43086C27.8106 3.34155 28.3283 3.86521 28.0129 4.39471C27.644 5.01352 27.293 5.67387 26.9063 6.30463C27.6917 6.07252 28.5009 5.92973 29.31 5.82861C29.8931 5.75124 30.2441 6.64967 29.798 7.00665C28.8519 7.76228 27.9118 8.62501 26.9063 9.31522C26.8766 15.9969 24.925 21.6018 18.9573 25.4037C13.983 28.5811 4.73694 28.0456 0.411481 23.72H0.40551C0.215076 23.6724 0.113953 23.5296 0.0782549 23.375C-0.0882935 23.1251 0.030614 22.8158 0.250775 22.6967C0.334114 22.5955 0.441208 22.5181 0.57803 22.5003Z" fill="white"/>
</svg>
